<?xml version="1.0" encoding="iso-8859-1"?>
<!-- Uploaded to: SVG Repo, www.svgrepo.com, Generator: SVG Repo Mixer Tools -->
<svg height="800px" width="800px" version="1.1" id="Layer_1" xmlns="http://www.w3.org/2000/svg" xmlns:xlink="http://www.w3.org/1999/xlink" 
	 viewBox="0 0 512.001 512.001" xml:space="preserve">
<path style="fill:#C9E3F7;" d="M247.307,244.399c-1.608-18.451-9.818-111.283-13.418-126.95v-0.001
	c-6.307-27.427-33.876-44.671-61.466-38.432c-13.44,3.037-24.866,11.11-32.174,22.731c-7.256,11.54-9.571,25.201-6.522,38.468
	c4.347,18.913,39.42,109.923,43.404,120.237l5.343,13.83l66.135-14.948L247.307,244.399z"/>
<path style="fill:#FFFFFF;" d="M212.66,243.019l-7.331,1.67c-12.841-33.839-29.334-78.585-31.542-88.267
	c-1.829-8.022,3.211-16.036,11.233-17.864c8.024-1.829,16.035,3.211,17.864,11.232l0,0
	C204.697,157.751,209.439,206.859,212.66,243.019z"/>
<path style="fill:#AED5F3;" d="M263.391,259.336l66.135,14.948l5.343-13.83c3.984-10.315,39.057-101.324,43.404-120.237
	c3.049-13.267,0.734-26.927-6.522-38.468c-7.307-11.621-18.732-19.694-32.174-22.731c-27.591-6.239-55.16,11.005-61.466,38.432
	v0.001c-3.6,15.667-11.809,108.498-13.418,126.95L263.391,259.336z"/>
<path style="fill:#FFFFFF;" d="M299.342,243.019l7.331,1.67c12.841-33.839,29.334-78.585,31.542-88.267
	c1.829-8.022-3.211-16.036-11.233-17.864c-8.024-1.829-16.035,3.211-17.864,11.232l0,0
	C307.305,157.751,302.562,206.859,299.342,243.019z"/>
<path style="fill:#C9E3F7;" d="M256,213.398c-34.051,0-66.266,9.79-90.709,27.566c-26.094,18.974-40.463,44.725-40.463,72.508
	c0,27.784,14.37,53.534,40.463,72.51c24.444,17.775,56.658,27.566,90.709,27.566s45.792-72.291,45.792-100.075
	C301.793,285.69,290.052,213.398,256,213.398z"/>
<path style="fill:#AED5F3;" d="M256,413.548c34.051,0,66.266-9.79,90.709-27.566c26.094-18.975,40.463-44.725,40.463-72.51
	c0-27.783-14.37-53.534-40.463-72.508c-24.444-17.775-56.658-27.566-90.709-27.566"/>
<g>
	<circle style="fill:#3C5D76;" cx="204.485" cy="287.622" r="17.172"/>
	<circle style="fill:#3C5D76;" cx="307.518" cy="287.622" r="17.172"/>
</g>
<ellipse style="fill:#1E2E3B;" cx="256.002" cy="332.269" rx="22.896" ry="15.265"/>
<path style="fill:#FFC170;" d="M444.893,380.348h-34.344V231.524c0-41.092-16.128-79.85-45.413-109.134
	C335.851,93.103,297.092,76.975,256,76.975s-79.85,16.128-109.135,45.414c-29.285,29.284-45.413,68.044-45.413,109.134v148.825
	H67.108V231.524c0-50.265,19.7-97.648,55.473-133.42C158.352,62.332,205.736,42.631,256,42.631s97.648,19.701,133.42,55.473
	s55.473,83.155,55.473,133.42V380.348z"/>
<path style="fill:#FFDA44;" d="M67.108,337.718v103.305c0,39.139,31.84,70.978,70.978,70.978h235.83
	c39.137,0,70.978-31.84,70.978-70.978V337.718H67.108z"/>
<path style="fill:#FFAD41;" d="M255.428,337.718v174.283h118.487c39.137,0,70.978-31.84,70.978-70.978V337.718H255.428z"/>
<path style="fill:#FFEFD9;" d="M189.562,1.42c-19.581-5.579-39.975,5.771-45.555,25.351c-3.225,11.32-0.785,22.906,5.626,31.751
	c-6.411,8.845-8.85,20.431-5.626,31.75c5.58,19.581,25.974,30.93,45.555,25.352c19.581-5.581,65.866-57.102,65.866-57.102
	S209.142,7,189.562,1.42z"/>
<path style="fill:#FFD6A0;" d="M321.294,1.42c19.581-5.579,39.975,5.771,45.555,25.351c3.225,11.32,0.785,22.906-5.626,31.751
	c6.411,8.845,8.85,20.431,5.626,31.75c-5.58,19.581-25.974,30.93-45.555,25.352c-19.581-5.581-65.866-57.102-65.866-57.102
	S301.715,7,321.294,1.42z"/>
<circle style="fill:#FFDA44;" cx="256.002" cy="57.241" r="34.344"/>
<path style="fill:#FFAD41;" d="M256,22.897c18.967,0,34.344,15.377,34.344,34.344S274.968,91.585,256,91.585"/>
<path style="fill:#FFEFD9;" d="M67.108,332.267v40.01l2.457,4.082c17.517,29.126,49.475,47.22,83.404,47.22
	c18.276,0,36.145-5.177,51.516-14.768c15.371,9.591,33.241,14.768,51.516,14.768s36.145-5.177,51.516-14.768
	c15.371,9.591,33.241,14.768,51.516,14.768c33.929,0,65.887-18.094,83.404-47.219l2.457-4.082v-40.01H67.108V332.267z"/>
<path style="fill:#FFD6A0;" d="M256,423.578c18.276,0,36.145-5.177,51.516-14.768c15.371,9.591,33.241,14.768,51.516,14.768
	c33.929,0,65.887-18.094,83.404-47.219l2.457-4.082v-40.01H255.428"/>
</svg>