<?xml version="1.0" encoding="iso-8859-1"?>
<!-- Uploaded to: SVG Repo, www.svgrepo.com, Generator: SVG Repo Mixer Tools -->
<svg height="800px" width="800px" version="1.1" id="Layer_1" xmlns="http://www.w3.org/2000/svg" xmlns:xlink="http://www.w3.org/1999/xlink" 
	 viewBox="0 0 512 512" xml:space="preserve">
<path style="fill:#FFC170;" d="M444.892,380.348h-34.344V231.524c0-41.092-16.128-79.85-45.413-109.135S297.091,76.976,256,76.976
	s-79.85,16.128-109.135,45.413s-45.413,68.044-45.413,109.135v148.824H67.107V231.524c0-50.265,19.7-97.648,55.473-133.42
	C158.351,62.331,205.735,42.632,256,42.632s97.648,19.7,133.42,55.473c35.772,35.772,55.473,83.155,55.473,133.42V380.348z"/>
<path style="fill:#C9E3F7;" d="M419.016,254.493c-18.007-25.886-42.563-40.141-69.141-40.141c-26.579,0-51.135,14.256-69.141,40.141
	c-16.687,23.987-25.877,55.571-25.877,88.935c0,55.076,42.624,99.884,95.019,99.884s95.019-44.808,95.019-99.884
	C444.892,310.064,435.703,278.48,419.016,254.493z"/>
<path style="fill:#AED5F3;" d="M349.873,443.312c52.394,0,95.019-44.808,95.019-99.884c0-33.364-9.189-64.948-25.877-88.935
	c-18.007-25.886-42.563-40.141-69.141-40.141"/>
<path style="fill:#C9E3F7;" d="M231.268,254.493c-18.008-25.886-42.563-40.141-69.143-40.141s-51.135,14.256-69.143,40.141
	c-16.687,23.987-25.876,55.571-25.876,88.935c0,55.076,42.626,99.884,95.019,99.884s95.019-44.808,95.019-99.884
	C257.144,310.064,247.955,278.48,231.268,254.493z"/>
<path style="fill:#AED5F3;" d="M162.126,443.312c52.393,0,95.019-44.808,95.019-99.884c0-33.364-9.189-64.948-25.876-88.935
	c-18.008-25.886-42.563-40.141-69.143-40.141"/>
<path style="fill:#F285B9;" d="M325.142,254.493c-18.007-25.886-42.563-40.141-69.141-40.141s-51.135,14.256-69.143,40.141
	c-16.687,23.987-25.876,55.571-25.876,88.935c0,55.076,42.626,99.884,95.019,99.884c52.394,0,95.019-44.808,95.019-99.884
	C351.018,310.064,341.829,278.48,325.142,254.493z"/>
<path style="fill:#EE5DA2;" d="M256,443.312c52.394,0,95.019-44.808,95.019-99.884c0-33.364-9.189-64.948-25.877-88.935
	c-18.007-25.886-42.563-40.141-69.141-40.141"/>
<path style="fill:#FFDA44;" d="M67.107,337.717v103.306c0,39.137,31.84,70.978,70.978,70.978h235.829
	c39.137,0,70.978-31.84,70.978-70.978V337.717H67.107z"/>
<path style="fill:#FFAD41;" d="M255.427,337.717V512h118.487c39.137,0,70.978-31.84,70.978-70.978V337.717H255.427z"/>
<path style="fill:#FFEFD9;" d="M189.561,1.421c-19.58-5.58-39.975,5.77-45.555,25.349c-3.225,11.32-0.784,22.906,5.627,31.751
	c-6.411,8.845-8.852,20.431-5.627,31.751c5.58,19.58,25.976,30.929,45.555,25.349c19.581-5.58,65.866-57.1,65.866-57.1
	S209.142,7.001,189.561,1.421z"/>
<path style="fill:#FFD6A0;" d="M321.293,1.421c19.581-5.58,39.975,5.77,45.555,25.349c3.225,11.32,0.784,22.906-5.627,31.751
	c6.411,8.845,8.852,20.431,5.627,31.751c-5.58,19.58-25.974,30.929-45.555,25.349s-65.866-57.1-65.866-57.1
	S301.714,7.001,321.293,1.421z"/>
<circle style="fill:#FFDA44;" cx="256.001" cy="57.24" r="34.344"/>
<path style="fill:#FFAD41;" d="M256,22.896c18.967,0,34.344,15.377,34.344,34.344S274.967,91.584,256,91.584"/>
<path style="fill:#FFEFD9;" d="M67.107,332.266v40.01l2.457,4.083c17.517,29.125,49.475,47.217,83.403,47.217
	c18.276,0,36.145-5.177,51.516-14.768c15.371,9.591,33.24,14.768,51.516,14.768s36.145-5.177,51.516-14.768
	c15.371,9.591,33.24,14.768,51.516,14.768c33.928,0,65.887-18.092,83.403-47.217l2.457-4.083v-40.01H67.107z"/>
<path style="fill:#FFD6A0;" d="M256,423.577c18.276,0,36.145-5.177,51.516-14.768c15.371,9.591,33.24,14.768,51.516,14.768
	c33.928,0,65.887-18.092,83.403-47.217l2.457-4.083v-40.01H255.427"/>
</svg>